:SAMPLES-PER-SECOND 30
:FULLY-SPECIFIED
:DEGREES
288
root  90.4003 39.8053 -21.7225 -86.4141 -87.0977 88.0013
RightUpLeg  -5.66594 -14.5749 -17.938
RightLeg  7.11853 -3.56445 0.735734
RightFoot  0.415533 -1.23963 12.0365
RightToes  0.000482159 0.542163 -0.142577
Spine  12.2986 -0.144108 -5.98755
Spine1  7.03035 -0.53149 -0.837093
HEad  22.2996 -14.0388 6.66768
LeftShoulder1  4.90427 -9.66361 -31.1986
LeftArm  -22.8804 5.37869 -17.7919
LeftForeArm  15.6832 -6.49795 -1.08597
LeftHand  -0.25398 0.0180481 5.50724
RightShoulder  2.31469 4.60474 22.2763
RightArm  -23.2516 -2.01527 14.3401
RightForeArm  -4.65927 3.05562 2.88792
RightHand  -2.87742 8.93855 -23.4395
LeftUpLeg  -5.72119 7.58749 4.80597
LeftLeg  5.20962 7.381 -5.74915
LeftFoot  -0.428299 0.555818 -5.79069
LeftToes  1.06247e-005 4.65854e-005 -8.18501e-006
289
root  90.7039 39.7857 -22.4477 -88.7435 -86.9504 90.3863
RightUpLeg  -6.93825 -15.1906 -16.9221
RightLeg  8.45427 -3.28492 1.01891
RightFoot  0.437535 -1.053 10.2112
RightToes  0.000482159 0.542163 -0.142577
Spine  15.15 -0.412526 -4.63908
Spine1  6.64153 -0.508403 -1.9619
HEad  21.122 -13.1686 6.53797
LeftShoulder1  5.15263 -9.90306 -32.3853
LeftArm  -22.4823 3.23698 -18.9972
LeftForeArm  18.7723 -6.86166 -1.38243
LeftHand  -0.25398 0.0180481 5.50724
RightShoulder  2.68491 5.44184 23.8405
RightArm  -23.4721 -1.07573 16.3136
RightForeArm  -4.58417 3.32425 2.94969
RightHand  -2.63956 7.9635 -23.0727
LeftUpLeg  -6.01623 7.65224 5.59054
LeftLeg  4.55895 7.53615 -5.44042
LeftFoot  0.701886 0.690063 -6.57474
LeftToes  1.06247e-005 4.65854e-005 -8.18501e-006
290
root  91.099 39.7853 -23.2128 -98.2261 -87.3904 100.115
RightUpLeg  -9.25324 -15.5228 -14.6423
RightLeg  10.6798 -3.06392 0.820342
RightFoot  0.545597 -0.711693 6.86968
RightToes  0.000482159 0.542163 -0.142577
Spine  18.3431 -0.668224 -2.36225
Spine1  6.63774 -0.229543 -3.32629
HEad  18.8457 -12.4152 6.20064
LeftShoulder1  5.569 -10.5894 -33.465
LeftArm  -21.7056 0.721788 -19.7267
LeftForeArm  21.1877 -6.89469 -1.78451
LeftHand  -0.25398 0.0180481 5.50724
RightShoulder  2.96383 6.06425 24.854
RightArm  -24.3558 0.458716 19.116
RightForeArm  -3.44663 3.47063 2.78514
RightHand  -2.49503 7.71385 -22.2616
LeftUpLeg  -6.73125 7.99308 6.96974
LeftLeg  4.11747 7.63699 -4.97372
LeftFoot  2.16354 0.874547 -7.48669
LeftToes  1.06247e-005 4.65854e-005 -8.18501e-006
291
root  91.5246 39.7484 -24.013 -112.445 -88.076 115.187
RightUpLeg  -12.1349 -16.0336 -11.8376
RightLeg  12.6591 -2.90714 0.69935
RightFoot  0.609059 -0.471783 4.53876
RightToes  0.000482159 0.542163 -0.142577
Spine  21.0393 -0.907641 -0.294087
Spine1  7.11166 5.03283e-005 -4.00205
HEad  15.7533 -11.5487 5.61195
LeftShoulder1  6.06847 -11.5569 -34.2444
LeftArm  -20.8055 -2.06335 -20.3359
LeftForeArm  22.3368 -6.187 -2.16672
LeftHand  -0.25398 0.0180481 5.50724
RightShoulder  3.20817 6.78045 25.0824
RightArm  -25.312 2.49112 22.4795
RightForeArm  -1.73331 3.39114 2.5384
RightHand  -2.31875 7.52317 -21.0342
LeftUpLeg  -8.55315 8.33234 8.44767
LeftLeg  4.40168 7.6715 -4.05412
LeftFoot  3.53997 1.03436 -8.08532
LeftToes  1.06247e-005 4.65854e-005 -8.18501e-006
292
root  91.9699 39.6587 -24.8004 -102.589 -88.8606 106.533
RightUpLeg  -14.8238 -17.4385 -9.34027
RightLeg  14.175 -2.7066 1.08919
RightFoot  -0.00383912 -0.386967 3.89892
RightToes  0.000482159 0.542163 -0.142577
Spine  23.7644 -1.29327 1.14388
Spine1  7.29693 -0.237917 -3.6739
HEad  12.5232 -10.667 5.19581
LeftShoulder1  6.40568 -12.3534 -34.346
LeftArm  -20.3721 -5.01375 -21.3305
LeftForeArm  22.6696 -5.01251 -2.34252
LeftHand  -0.25398 0.0180481 5.50724
RightShoulder  3.5097 7.73744 25.1081
RightArm  -25.6415 4.91688 25.6345
RightForeArm  -0.996135 3.36462 2.4902
RightHand  -1.97456 6.04669 -20.2487
LeftUpLeg  -11.7126 8.53627 9.21588
LeftLeg  6.07358 7.34047 -2.17942
LeftFoot  4.09195 0.994095 -7.51196
LeftToes  1.06247e-005 4.65854e-005 -8.18501e-006
